<svg xmlns="http://www.w3.org/2000/svg" version="1.1" xmlns:xlink="http://www.w3.org/1999/xlink" xmlns:svgjs="http://svgjs.dev/svgjs" width="50" height="50" viewBox="0 0 1500 1202"><g transform="matrix(1,0,0,1,0.8169250104734829,0.48663967611332737)"><svg viewBox="0 0 308 247" data-background-color="#efe9dd" preserveAspectRatio="xMidYMid meet" height="1202" width="1500" xmlns="http://www.w3.org/2000/svg" xmlns:xlink="http://www.w3.org/1999/xlink"><g id="tight-bounds" transform="matrix(1,0,0,1,-0.16774193548388894,-0.09999999999999432)"><svg viewBox="0 0 308.3354838709678 247.2" height="247.2" width="308.3354838709678"><g><svg viewBox="0 0 308.3354838709678 247.2" height="247.2" width="308.3354838709678"><g><svg viewBox="0 0 308.3354838709678 247.2" height="247.2" width="308.3354838709678"><g id="textblocktransform"><svg viewBox="0 0 308.3354838709678 247.2" height="247.2" width="308.3354838709678" id="textblock"><g><svg viewBox="0 0 308.3354838709678 247.2" height="247.2" width="308.3354838709678"><g transform="matrix(1,0,0,1,0,0)"><svg width="308.3354838709678" viewBox="-3.6 -29.05 46.4 37.2" height="247.2" data-palette-color="#8a2851"><path d="M4.6 8.15L4.6 8.15Q2.8 8.15 0.9 7.48-1 6.8-2.3 5.45-3.6 4.1-3.6 2L-3.6 2Q-3.6 0-2.43-1.65-1.25-3.3 0.58-4.63 2.4-5.95 4.35-6.93 6.3-7.9 7.85-8.5L7.85-8.5Q11.55-9.95 15.55-10.68 19.55-11.4 23.5-11.55L23.5-11.55Q27.15-17.45 30.5-23.6L30.5-23.6Q30.45-23.7 30.45-23.8L30.45-23.8Q30.45-24.35 30.88-24.9 31.3-25.45 31.6-25.85L31.6-25.85Q30-25.9 28.38-26 26.75-26.1 25.15-26.1L25.15-26.1Q23-26.1 20.95-25.65L20.95-25.65Q19.95-25.4 18.55-24.8 17.15-24.2 16.1-23.28 15.05-22.35 15.05-21.05L15.05-21.05Q15.05-19.9 15.93-19.13 16.8-18.35 18.07-17.9 19.35-17.45 20.63-17.2 21.9-16.95 22.7-16.8L22.7-16.8Q22.8-16.8 22.98-16.75 23.15-16.7 23.15-16.55L23.15-16.55Q23.15-16.4 22.93-16.35 22.7-16.3 22.6-16.3L22.6-16.3Q22.55-16.3 22.43-16.32 22.3-16.35 22.2-16.35L22.2-16.35Q21.25-16.5 19.63-16.88 18-17.25 16.32-17.88 14.65-18.5 13.5-19.45 12.35-20.4 12.35-21.75L12.35-21.75Q12.35-22.95 13.25-23.83 14.15-24.7 15.45-25.3 16.75-25.9 18.07-26.28 19.4-26.65 20.3-26.8L20.3-26.8Q22.8-27.25 25.3-27.25L25.3-27.25 25.55-27.25Q27.3-27.25 29.05-27.2 30.8-27.15 32.5-27.15L32.5-27.15Q32.65-27.4 32.83-27.7 33-28 33.2-28.2L33.2-28.2Q33.55-28.6 34.38-28.83 35.2-29.05 35.7-29.05L35.7-29.05Q35.9-29.05 36.18-29 36.45-28.95 36.45-28.7L36.45-28.7Q36.45-28.5 36-27.95 35.55-27.4 35.4-27.2L35.4-27.2Q36.2-27.25 37.58-27.33 38.95-27.4 40.25-27.68 41.55-27.95 42.15-28.55L42.15-28.55Q42.25-28.65 42.38-28.75 42.5-28.85 42.65-28.85L42.65-28.85Q42.8-28.85 42.8-28.75L42.8-28.75Q42.8-28.55 42.65-28.4L42.65-28.4Q41.85-27.45 40.35-26.93 38.85-26.4 37.23-26.18 35.6-25.95 34.4-25.9L34.4-25.9Q31.95-22.5 29.85-18.88 27.75-15.25 25.7-11.6L25.7-11.6 26.5-11.6Q26.7-11.6 27.28-11.48 27.85-11.35 27.85-11.05L27.85-11.05Q27.85-10.85 27.28-10.8 26.7-10.75 26.05-10.78 25.4-10.8 25.25-10.8L25.25-10.8Q23.7-8.05 22.03-5.3 20.35-2.55 18.45 0L18.45 0Q16.8 2.2 14.68 4.08 12.55 5.95 10.03 7.05 7.5 8.15 4.6 8.15ZM4.1 6.9L4.1 6.9Q6.75 6.9 9.13 5.55 11.5 4.2 13.5 2.2 15.5 0.2 16.95-1.75L16.95-1.75Q18.55-3.95 20.08-6.23 21.6-8.5 23.05-10.8L23.05-10.8Q19.3-10.65 15.43-9.83 11.55-9 8.15-7.4L8.15-7.4Q6.8-6.75 5.2-5.8 3.6-4.85 2.13-3.6 0.65-2.35-0.3-0.85-1.25 0.65-1.25 2.4L-1.25 2.4Q-1.25 4.6 0.4 5.75 2.05 6.9 4.1 6.9Z" opacity="1" transform="matrix(1,0,0,1,0,0)" fill="#8a2851" class="wordmark-text-0" data-fill-palette-color="primary" id="text-0"></path></svg></g></svg></g></svg></g></svg></g></svg></g><defs></defs></svg><rect width="308.3354838709678" height="247.2" fill="none" stroke="none" visibility="hidden"></rect></g></svg></g></svg>